<?xml version="1.0" encoding="UTF-8" standalone="no"?>
<svg
   xmlns:dc="http://purl.org/dc/elements/1.1/"
   xmlns:cc="http://creativecommons.org/ns#"
   xmlns:rdf="http://www.w3.org/1999/02/22-rdf-syntax-ns#"
   xmlns:svg="http://www.w3.org/2000/svg"
   xmlns="http://www.w3.org/2000/svg"
   xmlns:sodipodi="http://sodipodi.sourceforge.net/DTD/sodipodi-0.dtd"
   xmlns:inkscape="http://www.inkscape.org/namespaces/inkscape"
   inkscape:version="1.0 (4035a4fb49, 2020-05-01)"
   sodipodi:docname="laptop laki.svg"
   viewBox="0 0 666.66669 666.66669"
   height="666.66669"
   width="666.66669"
   xml:space="preserve"
   id="svg833"
   version="1.1"><metadata
     id="metadata839"><rdf:RDF><cc:Work
         rdf:about=""><dc:format>image/svg+xml</dc:format><dc:type
           rdf:resource="http://purl.org/dc/dcmitype/StillImage" /><dc:title></dc:title></cc:Work></rdf:RDF></metadata><defs
     id="defs837"><clipPath
       id="clipPath855"
       clipPathUnits="userSpaceOnUse"><path
         id="path853"
         d="M 0,500 H 500 V 0 H 0 Z" /></clipPath><clipPath
       id="clipPath1053"
       clipPathUnits="userSpaceOnUse"><path
         id="path1051"
         d="M 0,500 H 500 V 0 H 0 Z" /></clipPath><clipPath
       id="clipPath1077"
       clipPathUnits="userSpaceOnUse"><path
         id="path1075"
         d="M 0,500 H 500 V 0 H 0 Z" /></clipPath><clipPath
       id="clipPath1097"
       clipPathUnits="userSpaceOnUse"><path
         id="path1095"
         d="M 0,500 H 500 V 0 H 0 Z" /></clipPath><clipPath
       id="clipPath1121"
       clipPathUnits="userSpaceOnUse"><path
         id="path1119"
         d="M 0,500 H 500 V 0 H 0 Z" /></clipPath><clipPath
       id="clipPath1133"
       clipPathUnits="userSpaceOnUse"><path
         id="path1131"
         d="M 0,500 H 500 V 0 H 0 Z" /></clipPath></defs><sodipodi:namedview
     inkscape:current-layer="g841"
     inkscape:window-maximized="0"
     inkscape:window-y="0"
     inkscape:window-x="26"
     inkscape:cy="262.57909"
     inkscape:cx="225.9347"
     inkscape:zoom="4.5577855"
     inkscape:snap-global="false"
     showgrid="false"
     id="namedview835"
     inkscape:window-height="728"
     inkscape:window-width="1274"
     inkscape:pageshadow="2"
     inkscape:pageopacity="0"
     guidetolerance="10"
     gridtolerance="10"
     objecttolerance="10"
     borderopacity="1"
     bordercolor="#666666"
     pagecolor="#ffffff" /><g
     transform="matrix(1.3333333,0,0,-1.3333333,0,666.66667)"
     inkscape:label="2416665"
     inkscape:groupmode="layer"
     id="g841"><path
       id="path847"
       style="fill:#ffffff;fill-opacity:1;fill-rule:nonzero;stroke:none"
       d="M 449.184,111.371 H 50.816 v 15.141 h 398.368 z" /><path
       id="path861"
       style="fill:#8dc63f;fill-opacity:1;fill-rule:nonzero;stroke:none"
       d="M 221.566,132.273 H 85.208 v 9.872 h 136.358 z" /><g
       transform="translate(140.499,279.6221)"
       id="g863"><path
         id="path865"
         style="fill:#80b230;fill-opacity:1;fill-rule:nonzero;stroke:none"
         d="m 0,0 c 0,0 -31.575,-8.281 -43.148,-18.917 -31.917,-29.334 -10.917,-124.772 -10.917,-124.772 h 21.273 z" /></g><g
       transform="translate(199.4087,319.3062)"
       id="g867"><path
         id="path869"
         style="fill:#654991;fill-opacity:1;fill-rule:nonzero;stroke:none"
         d="m 0,0 c -1.507,-4.399 -5.482,-7.022 -8.878,-5.858 -3.396,1.163 -4.928,5.672 -3.42,10.071 1.507,4.399 5.482,7.022 8.878,5.859 C -0.024,8.908 1.507,4.399 0,0" /></g><g
       style="fill:#1a1a1a"
       transform="translate(113.915,333.7632)"
       id="g871"><path
         id="path873"
         style="fill:#1a1a1a;fill-opacity:1;fill-rule:nonzero;stroke:none"
         d="m 0,0 c 0,0 -13.46,26.673 2.269,44.275 11.997,13.425 39.959,13.537 54.447,3.434 0,0 41.61,8.318 23.153,-47.896 0,0 -48.13,-7.177 -48.447,-7.576 C 31.105,-8.162 0,0 0,0" /></g><g
       style="fill:#000000"
       transform="translate(169.5449,346.5366)"
       id="g875"><path
         id="path877"
         style="fill:#000000;fill-opacity:1;fill-rule:nonzero;stroke:none"
         d="m 0,0 c 0,0 -34.236,-7.915 -42.872,-0.915 -8.635,7 -0.504,16.709 -0.504,16.709 l -4.376,4.666 c 0,0 -9.156,-4.463 -13.189,-8.451 -0.605,-13.042 5.311,-24.782 5.311,-24.782 0,0 31.106,-8.163 31.422,-7.764 0.083,0.105 3.447,0.674 8.363,1.458 C -10.545,-14.337 0,0 0,0" /></g><g
       style="fill:#000000"
       transform="translate(116.1836,378.0381)"
       id="g879"><path
         id="path881"
         style="fill:#000000;fill-opacity:1;fill-rule:nonzero;stroke:none"
         d="m 0,0 c -12.893,-14.428 -6.177,-34.94 -3.334,-41.872 l 4.623,-1.854 C 1.289,-43.726 -1,-32.333 12,-12.5 25,7.333 54.448,3.435 54.448,3.435 39.959,13.537 11.997,13.425 0,0" /></g><g
       style="fill:#000000"
       transform="translate(195.1699,338.0781)"
       id="g883"><path
         id="path885"
         style="fill:#000000;fill-opacity:1;fill-rule:nonzero;stroke:none"
         d="M 0,0 C 14.797,51.251 -24.539,43.395 -24.539,43.395 4.035,22.747 -4.373,-3.762 -4.373,-3.762 c 0,0 1.947,1.662 4.373,3.762" /></g><g
       transform="translate(108.2876,319.3062)"
       id="g887"><path
         id="path889"
         style="fill:#654991;fill-opacity:1;fill-rule:nonzero;stroke:none"
         d="m 0,0 c 1.507,-4.399 5.482,-7.022 8.878,-5.858 3.396,1.163 4.927,5.672 3.42,10.071 C 10.791,8.612 6.816,11.235 3.42,10.072 0.024,8.908 -1.507,4.399 0,0" /></g><g
       transform="translate(124.3237,322.7388)"
       id="g891"><path
         id="path893"
         style="fill:#4f346b;fill-opacity:1;fill-rule:nonzero;stroke:none"
         d="m 0,0 c 0,0 -0.521,3.832 -0.221,9.278 -1.805,1.358 -4.031,2.367 -6.631,2.295 -7.593,-0.207 -7.647,-6.315 -5.522,-14.253 2.364,-8.828 10.385,-13.196 14.724,-7.967 C 0.249,-3.544 0,0 0,0" /></g><g
       transform="translate(206.0229,262.23)"
       id="g895"><path
         id="path897"
         style="fill:#80b230;fill-opacity:1;fill-rule:nonzero;stroke:none"
         d="m 0,0 -38.522,17.3 h -13.499 l -0.004,-0.071 V 17.3 H -65.524 L -104.046,0 c -5.969,-2.905 -9.756,-8.961 -9.756,-15.6 v -96.646 h 55.173 6.604 61.781 v 96.647 C 9.756,-8.961 5.969,-2.905 0,0" /></g><g
       transform="translate(167.501,279.6221)"
       id="g899"><path
         id="path901"
         style="fill:#80b230;fill-opacity:1;fill-rule:nonzero;stroke:none"
         d="M 0,0 C 0,0 31.575,-8.281 43.148,-18.917 75.065,-48.251 54.065,-143.689 54.065,-143.689 H 32.791 Z" /></g><path
       id="path903"
       style="fill:#80b230;fill-opacity:1;fill-rule:nonzero;stroke:none"
       d="m 140.46,149.984 h -4.861 v 106.052 h 4.861 z" /><path
       id="path905"
       style="fill:#80b230;fill-opacity:1;fill-rule:nonzero;stroke:none"
       d="m 172.357,150.089 h -4.861 V 256.14 h 4.861 z" /><path
       id="path907"
       style="fill:#ffffff;fill-opacity:1;fill-rule:nonzero;stroke:none"
       d="m 167.501,149.984 h -27.002 v 129.545 h 27.002 z" /><g
       transform="translate(167.501,290.4966)"
       id="g909"><path
         id="path911"
         style="fill:#f4b184;fill-opacity:1;fill-rule:nonzero;stroke:none"
         d="m 0,0 h -27.002 v -10.875 c 0,-7.456 6.044,-13.5 13.501,-13.5 7.456,0 13.501,6.044 13.501,13.5 z" /></g><g
       transform="translate(183.3726,322.7388)"
       id="g913"><path
         id="path915"
         style="fill:#4f346b;fill-opacity:1;fill-rule:nonzero;stroke:none"
         d="m 0,0 c 0,0 0.521,3.832 0.221,9.278 1.805,1.358 4.031,2.367 6.631,2.295 C 14.445,11.366 14.499,5.258 12.374,-2.68 10.01,-11.508 1.989,-15.876 -2.35,-10.647 -0.249,-3.544 0,0 0,0" /></g><g
       transform="translate(169.5449,346.5366)"
       id="g917"><path
         id="path919"
         style="fill:#f9c7a5;fill-opacity:1;fill-rule:nonzero;stroke:none"
         d="m 0,0 c -19.636,-13.313 -49.664,-12.468 -49.684,-12.467 -0.202,-19.657 8.187,-50.305 33.987,-50.305 25.8,0 34.189,30.649 33.987,50.306 C 4.155,-12.103 0,0 0,0" /></g><g
       transform="translate(187.7729,330.3628)"
       id="g921"><path
         id="path923"
         style="fill:#f4b184;fill-opacity:1;fill-rule:nonzero;stroke:none"
         d="M 0,0 C 0.053,1.27 0.074,2.51 0.062,3.708 -14.073,4.071 -18.228,16.174 -18.228,16.174 -14.994,0.974 -0.019,0.001 0,0" /></g><g
       transform="translate(129.9336,306.7153)"
       id="g925"><path
         id="path927"
         style="fill:#f4b184;fill-opacity:1;fill-rule:nonzero;stroke:none"
         d="M 0,0 C -6.25,20.344 5.125,24.486 5.125,24.486 31.632,29.191 39.611,39.821 39.611,39.821 19.976,26.508 -10.052,27.354 -10.072,27.354 -10.274,7.697 -1.885,-22.951 23.915,-22.951 23.915,-22.951 6.25,-20.344 0,0" /></g><g
       transform="translate(154.0024,294.7695)"
       id="g929"><path
         id="path931"
         style="fill:#e062a4;fill-opacity:1;fill-rule:nonzero;stroke:none"
         d="M 0,0 C 6.597,0 11.945,5.348 11.945,11.946 H -11.946 C -11.946,5.348 -6.598,0 0,0" /></g><g
       transform="translate(154.0024,301.3511)"
       id="g933"><path
         id="path935"
         style="fill:#ec92bd;fill-opacity:1;fill-rule:nonzero;stroke:none"
         d="m 0,0 c -3.448,0 -6.6,-0.923 -9.025,-2.447 2.191,-2.528 5.417,-4.135 9.025,-4.135 3.607,0 6.834,1.607 9.024,4.135 C 6.6,-0.923 3.448,0 0,0" /></g><g
       transform="translate(165.4189,303.1934)"
       id="g937"><path
         id="path939"
         style="fill:#ffffff;fill-opacity:1;fill-rule:nonzero;stroke:none"
         d="m 0,0 c 0.343,1.114 0.529,2.296 0.529,3.522 h -23.891 c 0,-1.226 0.186,-2.408 0.529,-3.522 z" /></g><g
       transform="translate(131.7373,329.6538)"
       id="g945"><path
         id="path947"
         style="fill:none;stroke:#6d2122;stroke-width:3.146;stroke-linecap:round;stroke-linejoin:miter;stroke-miterlimit:10;stroke-dasharray:none;stroke-opacity:1"
         d="M 0,0 C 0,0 5.702,6.28 11.404,0" /></g><g
       transform="translate(131.5366,339.6699)"
       id="g949"><path
         id="path951"
         style="fill:none;stroke:#6d2122;stroke-width:2.126;stroke-linecap:round;stroke-linejoin:miter;stroke-miterlimit:10;stroke-dasharray:none;stroke-opacity:1"
         d="M 0,0 C 0,0 5.314,1.255 9.831,-0.966" /></g><g
       transform="translate(175.959,329.6538)"
       id="g953"><path
         id="path955"
         style="fill:none;stroke:#6d2122;stroke-width:3.146;stroke-linecap:round;stroke-linejoin:miter;stroke-miterlimit:10;stroke-dasharray:none;stroke-opacity:1"
         d="M 0,0 C 0,0 -5.702,6.28 -11.404,0" /></g><g
       transform="translate(176.1597,339.6699)"
       id="g957"><path
         id="path959"
         style="fill:none;stroke:#6d2122;stroke-width:2.126;stroke-linecap:round;stroke-linejoin:miter;stroke-miterlimit:10;stroke-dasharray:none;stroke-opacity:1"
         d="M 0,0 C 0,0 -5.314,1.255 -9.831,-0.966" /></g><g
       transform="translate(111.7061,331.2017)"
       id="g961"><path
         id="path963"
         style="fill:#4f346b;fill-opacity:1;fill-rule:nonzero;stroke:none"
         d="M 0,0 C -0.389,0.854 -9.444,21.067 -2.69,34.208 4.122,47.463 24.495,50.163 25.358,50.271 25.181,50.249 8.006,41.896 2.646,31.465 -2.777,20.912 5.379,2.668 5.462,2.485 Z" /></g><g
       transform="translate(195.9897,331.2017)"
       id="g965"><path
         id="path967"
         style="fill:#4f346b;fill-opacity:1;fill-rule:nonzero;stroke:none"
         d="M 0,0 C 0.389,0.854 9.444,21.067 2.69,34.208 -4.122,47.463 -24.495,50.163 -25.358,50.271 -25.181,50.249 -8.006,41.896 -2.645,31.465 2.777,20.912 -5.378,2.668 -5.461,2.485 Z" /></g><g
       transform="translate(140.499,279.6221)"
       id="g969"><path
         id="path971"
         style="fill:#aad348;fill-opacity:1;fill-rule:nonzero;stroke:none"
         d="M 0,0 -11.315,-11.25 0,-27.227 Z" /></g><g
       transform="translate(129.1836,268.3716)"
       id="g973"><path
         id="path975"
         style="fill:#93c13a;fill-opacity:1;fill-rule:nonzero;stroke:none"
         d="m 0,0 3,-16.75 5.736,4.415 z" /></g><g
       transform="translate(167.501,279.6221)"
       id="g977"><path
         id="path979"
         style="fill:#aad348;fill-opacity:1;fill-rule:nonzero;stroke:none"
         d="M 0,0 11.315,-11.25 0,-27.227 Z" /></g><g
       transform="translate(178.8159,268.3716)"
       id="g981"><path
         id="path983"
         style="fill:#93c13a;fill-opacity:1;fill-rule:nonzero;stroke:none"
         d="m 0,0 -3,-16.75 -5.736,4.415 z" /></g><g
       transform="translate(175.1211,240.0586)"
       id="g985"><path
         id="path987"
         style="fill:#80b230;fill-opacity:1;fill-rule:nonzero;stroke:none"
         d="m 0,0 c 0,-1.726 -1.399,-3.125 -3.125,-3.125 -1.726,0 -3.125,1.399 -3.125,3.125 0,1.727 1.399,3.125 3.125,3.125 C -1.399,3.125 0,1.727 0,0" /></g><g
       transform="translate(175.1211,220.4961)"
       id="g989"><path
         id="path991"
         style="fill:#80b230;fill-opacity:1;fill-rule:nonzero;stroke:none"
         d="m 0,0 c 0,-1.726 -1.399,-3.125 -3.125,-3.125 -1.726,0 -3.125,1.399 -3.125,3.125 0,1.727 1.399,3.125 3.125,3.125 C -1.399,3.125 0,1.727 0,0" /></g><g
       transform="translate(175.1211,200.9336)"
       id="g993"><path
         id="path995"
         style="fill:#80b230;fill-opacity:1;fill-rule:nonzero;stroke:none"
         d="m 0,0 c 0,-1.726 -1.399,-3.125 -3.125,-3.125 -1.726,0 -3.125,1.399 -3.125,3.125 0,1.727 1.399,3.125 3.125,3.125 C -1.399,3.125 0,1.727 0,0" /></g><g
       transform="translate(175.1211,181.3711)"
       id="g997"><path
         id="path999"
         style="fill:#80b230;fill-opacity:1;fill-rule:nonzero;stroke:none"
         d="m 0,0 c 0,-1.726 -1.399,-3.125 -3.125,-3.125 -1.726,0 -3.125,1.399 -3.125,3.125 0,1.727 1.399,3.125 3.125,3.125 C -1.399,3.125 0,1.727 0,0" /></g><g
       transform="translate(175.1211,161.8086)"
       id="g1001"><path
         id="path1003"
         style="fill:#80b230;fill-opacity:1;fill-rule:nonzero;stroke:none"
         d="m 0,0 c 0,-1.726 -1.399,-3.125 -3.125,-3.125 -1.726,0 -3.125,1.399 -3.125,3.125 0,1.727 1.399,3.125 3.125,3.125 C -1.399,3.125 0,1.727 0,0" /></g><path
       id="path1005"
       style="fill:#654991;fill-opacity:1;fill-rule:nonzero;stroke:none"
       d="M 233.126,139.591 H 77.355 v 90.216 h 155.771 z" /><path
       id="path1007"
       style="fill:#7358a5;fill-opacity:1;fill-rule:nonzero;stroke:none"
       d="M 233.126,225.504 H 77.355 v 4.303 h 155.771 z" /><path
       id="path1009"
       style="fill:#4f346b;fill-opacity:1;fill-rule:nonzero;stroke:none"
       d="M 233.126,139.591 H 77.355 v 5.11 h 155.771 z" /><g
       transform="translate(226.9932,126.5117)"
       id="g1011"><path
         id="path1013"
         style="fill:#654991;fill-opacity:1;fill-rule:nonzero;stroke:none"
         d="m 0,0 h -143.506 c -3.387,0 -6.132,2.746 -6.132,6.133 V 9.137 H 6.133 V 6.133 C 6.133,2.746 3.387,0 0,0" /></g><g
       transform="translate(226.9932,129.6084)"
       id="g1015"><path
         id="path1017"
         style="fill:#4f346b;fill-opacity:1;fill-rule:nonzero;stroke:none"
         d="m 0,0 h -143.506 c -3.355,0 -6.077,2.696 -6.128,6.04 h -0.004 V 3.036 c 0,-3.387 2.745,-6.133 6.132,-6.133 H 0 c 3.387,0 6.133,2.746 6.133,6.133 V 6.04 H 6.128 C 6.078,2.696 3.355,0 0,0" /></g><path
       id="path1019"
       style="fill:#4f346b;fill-opacity:1;fill-rule:nonzero;stroke:none"
       d="M 113.857,132.273 H 92.126 v 7.317 h 21.731 z" /><path
       id="path1021"
       style="fill:#4f346b;fill-opacity:1;fill-rule:nonzero;stroke:none"
       d="m 218.354,132.273 h -21.731 v 7.317 h 21.731 z" /><g
       transform="translate(161.5786,131.0801)"
       id="g1023"><path
         id="path1025"
         style="fill:#4f346b;fill-opacity:1;fill-rule:nonzero;stroke:none"
         d="m 0,0 c 0,-1.25 -1.014,-2.264 -2.264,-2.264 -1.25,0 -2.263,1.014 -2.263,2.264 0,1.25 1.013,2.264 2.263,2.264 C -1.014,2.264 0,1.25 0,0" /></g><g
       transform="translate(153.4292,131.0801)"
       id="g1027"><path
         id="path1029"
         style="fill:#4f346b;fill-opacity:1;fill-rule:nonzero;stroke:none"
         d="m 0,0 c 0,-1.25 -1.013,-2.264 -2.264,-2.264 -1.25,0 -2.263,1.014 -2.263,2.264 0,1.25 1.013,2.264 2.263,2.264 C -1.013,2.264 0,1.25 0,0" /></g><g
       transform="translate(160.6851,185.5479)"
       id="g1031"><path
         id="path1033"
         style="fill:#4f346b;fill-opacity:1;fill-rule:nonzero;stroke:none"
         d="m 0,0 c -3.009,0 -5.448,2.439 -5.448,5.448 0,0.712 0.146,1.389 0.394,2.012 -0.13,0.006 -0.258,0.019 -0.391,0.019 -4.6,0 -8.329,-3.728 -8.329,-8.328 0,-4.6 3.729,-8.329 8.329,-8.329 4.6,0 8.329,3.729 8.329,8.329 0,0.549 -0.056,1.086 -0.158,1.606 C 1.921,0.288 0.999,0 0,0" /></g><rect
       style="opacity:1;fill:none;stroke:#000000;stroke-width:0.56693;stroke-opacity:1;paint-order:stroke fill markers"
       id="rect1408"
       width="12.835181"
       height="12.506073"
       x="163.5663"
       y="-327.54782"
       transform="scale(1,-1)"
       ry="4.0717554" /><rect
       ry="4.0717554"
       transform="scale(1,-1)"
       y="-327.54782"
       x="130.49103"
       height="12.506073"
       width="12.835181"
       id="rect1410"
       style="opacity:1;fill:none;stroke:#000000;stroke-width:0.56693;stroke-opacity:1;paint-order:stroke fill markers" /><path
       id="path1412"
       d="m 142.99631,320.9657 20.57073,-0.16455"
       style="fill:none;stroke:#000000;stroke-width:0.75px;stroke-linecap:butt;stroke-linejoin:miter;stroke-opacity:1" /><path
       sodipodi:nodetypes="cc"
       id="path1414"
       d="m 176.48374,321.13026 11.02509,2.22147"
       style="fill:none;stroke:#000000;stroke-width:0.75px;stroke-linecap:butt;stroke-linejoin:miter;stroke-opacity:1" /><path
       id="path1416"
       d="M 119.95958,323.1049 130.491,321.45936"
       style="fill:none;stroke:#000000;stroke-width:0.75px;stroke-linecap:butt;stroke-linejoin:miter;stroke-opacity:1" /></g></svg>
