<?xml version="1.0" encoding="UTF-8" standalone="no"?>
<svg
   xmlns:dc="http://purl.org/dc/elements/1.1/"
   xmlns:cc="http://creativecommons.org/ns#"
   xmlns:rdf="http://www.w3.org/1999/02/22-rdf-syntax-ns#"
   xmlns:svg="http://www.w3.org/2000/svg"
   xmlns="http://www.w3.org/2000/svg"
   xmlns:sodipodi="http://sodipodi.sourceforge.net/DTD/sodipodi-0.dtd"
   xmlns:inkscape="http://www.inkscape.org/namespaces/inkscape"
   inkscape:version="0.92.3 (2405546, 2018-03-11)"
   sodipodi:docname="media.svg"
   xml:space="preserve"
   enable-background="new 0 0 3200 2000"
   viewBox="0 0 3200 2000"
   height="2000px"
   width="3200px"
   y="0px"
   x="0px"
   id="Слой_1"
   version="1.1"><metadata
   id="metadata2269"><rdf:RDF><cc:Work
       rdf:about=""><dc:format>image/svg+xml</dc:format><dc:type
         rdf:resource="http://purl.org/dc/dcmitype/StillImage" /><dc:title /></cc:Work></rdf:RDF></metadata><defs
   id="defs2267">
	
	
	
	
	
	
	
	
	
	
	
	
	
	
	
	
	
		
	
		
	
		
	
	
	
	
	
	
	
	
	
	

	
	
	
	
	
	
	
	
	
	
	
	
	
	
	
	
	
	
	
	
	
	
	
		
	
	
	
	
	
	
	
	
	
	
	
	
	
	
	
	
	

		
		
		
		
		
		
		
		
		
		
		
		
		
		
		
		
		
		
		
		
		
		
	</defs><sodipodi:namedview
   inkscape:current-layer="Слой_1"
   inkscape:window-maximized="1"
   inkscape:window-y="30"
   inkscape:window-x="0"
   inkscape:cy="1202.2471"
   inkscape:cx="1838.9886"
   inkscape:zoom="0.23953242"
   inkscape:snap-global="false"
   showgrid="false"
   id="namedview2265"
   inkscape:window-height="705"
   inkscape:window-width="1366"
   inkscape:pageshadow="2"
   inkscape:pageopacity="0"
   guidetolerance="10"
   gridtolerance="10"
   objecttolerance="10"
   borderopacity="1"
   bordercolor="#666666"
   pagecolor="#ffffff" />





<path
   d="m 448.12235,1838.4326 c 0,0 -655.87541,-1181.20391 -164.92498,-1456.82702 C 674.89243,161.70637 1018.4842,546.53055 1437.6652,278.52805 1978.4628,-67.227462 2388.4335,164.245 2681.4664,594.6315 c 219.8992,322.97674 336.365,531.8982 446.6692,783.3877 171.796,391.6951 -192.4109,481.0285 -192.4109,481.0285 z"
   id="path2052"
   inkscape:connector-curvature="0"
   style="fill:#e7f3fe;stroke-width:2.37254357" /><path
   d="m 2260.3257,1846.1434 -299.0164,0.5435 c -4.2612,0 -7.8295,-4.33 -8.0714,-9.6398 -0.2444,-5.3097 2.9158,-9.9552 7.1603,-10.3348 l 297.8183,-26.7457 c 24.1809,-2.1732 46.2052,7.1912 46.8339,20.9971 0.6312,13.801 -20.4466,25.1346 -44.7247,25.1797 z"
   id="path2054"
   inkscape:connector-curvature="0"
   style="fill:#75a1de;stroke-width:2.37254357" /><g
   id="g2064"
   transform="matrix(2.3725435,0,0,2.3725435,-486.60283,-2365.9185)">
		<path
   d="m 994.616,1757.491 c 4.344,-1.086 12.31,-24.86 12.31,-24.86 0,0 -91.013,-30.688 -129.614,-50.688 l -53.776,62.202 c 69.077,17.209 167.858,14.152 171.08,13.346 z"
   id="path2056"
   inkscape:connector-curvature="0"
   style="fill:#f09959" />
		<path
   d="m 980.617,1723.217 c 22.398,5.793 58.033,-8.688 64.692,-7.24 6.659,1.447 34.505,15.93 41.163,23.171 6.659,7.241 30.268,29.688 26.03,31.136 -4.237,1.449 -33.899,-20.273 -37.532,-20.998 -3.632,-0.725 -5.448,4.345 -35.11,10.138 -29.662,5.792 -65.52,-9.172 -65.52,-9.172 z"
   id="path2058"
   inkscape:connector-curvature="0"
   style="fill:#f09959" />
		<path
   d="m 1016.252,1745.664 c 0,0 34.505,-8.689 38.742,-7.24 4.237,1.448 29.964,7.24 47.822,27.516 -16.95,-5.069 -41.164,-6.517 -47.822,-6.517 -6.659,0 -38.742,-13.759 -38.742,-13.759 z"
   id="path2060"
   inkscape:connector-curvature="0"
   style="fill:#e38540" />
		<path
   d="m 1024.498,1731.183 c 14.735,18.827 52.14,24.619 57.807,31.136 5.667,6.518 -13.626,3.75 -23.803,2.896 -25.905,-2.172 -44.002,8.327 -64.972,1.811 -20.97,-6.516 -25.706,-22.085 -25.706,-22.085 z"
   id="path2062"
   inkscape:connector-curvature="0"
   style="fill:#f09959" />
	</g><path
   d="m 1288.8948,948.47261 c -157.684,77.48259 -229.833,134.17209 -278.7928,345.47079 -48.95978,211.2987 -51.53641,412.2889 -25.76822,561.7425 175.02492,5.0819 676.66842,23.9792 676.66842,23.9792 0,0 -9.5543,-306.8481 -60.8107,-549.6472 -48.9598,-231.9113 -118.5323,-322.1013 -177.8007,-363.33122 -59.2686,-41.22771 -133.496,-18.21407 -133.496,-18.21407 z"
   id="path2066"
   inkscape:connector-curvature="0"
   style="fill:#a2dff2;stroke-width:2.37254357" /><path
   d="m 1327.0477,1667.5787 c -56.5211,-56.6825 -41.2277,-440.6358 -133.9941,-613.2788 l -172.6452,322.1013 -52.19126,268.0025 c -0.44365,77.409 5.35009,148.8533 16.11428,211.2822 0.6169,3.5421 3.86253,5.9408 7.38101,5.6323 142.52347,-12.4748 150.46197,-74.4219 605.72217,-143.1403 10.7453,-1.6228 -231.9232,-12.0287 -270.3869,-50.5992 z"
   id="path2068"
   inkscape:connector-curvature="0"
   style="fill:#96cfe0;stroke-width:2.37254357" /><path
   d="m 1273.8861,948.55093 c -19.9791,46.61577 20.6151,107.65897 84.752,155.75987 64.137,48.1033 103.0776,21.761 99.6421,-16.0337 -3.4354,-37.7946 -6.871,-77.8811 -21.7609,-101.93394 -14.8901,-24.05286 -133.999,-44.66544 -133.999,-44.66544 0,0 -25.1987,-1.14598 -28.6342,6.87321 z"
   id="path2070"
   inkscape:connector-curvature="0"
   style="fill:#ffffff;stroke-width:2.37254357" /><path
   d="m 1350.0496,714.88862 -61.1548,233.58165 c -6.0143,15.63505 -4.3631,33.1658 4.4557,47.40576 24.9046,40.22407 78.4766,117.51457 116.8288,107.28887 51.5387,-13.7442 17.1795,-109.94844 17.1795,-109.94844 l 68.7184,-242.25095 z"
   id="path2072"
   inkscape:connector-curvature="0"
   style="fill:#f09959;stroke-width:2.37254357" /><path
   d="m 1443.7459,729.31131 -61.0549,-24.71241 -18.3398,47.68575 c 8.4107,203.02089 34.2738,285.88195 73.9853,308.97625 2.1355,-31.3127 -10.9777,-68.04444 -10.9777,-68.04444 l 49.8211,-180.40586 z"
   id="path2074"
   inkscape:connector-curvature="0"
   style="fill:#e38540;stroke-width:2.37254357" /><path
   id="path2452"
   d="m 1589.0879,607.941 c 54.5613,121.52405 -10.9255,234.09649 -8.9422,229.35141 1.9835,-4.74509 -82.5857,-205.17756 -82.5857,-205.17756 z"
   inkscape:connector-curvature="0"
   style="fill:#2e5b9a;stroke-width:2.37254357" /><path
   d="m 1613.3188,820.83217 c -11.9079,80.62853 -43.6761,149.71695 -101.2673,141.21146 -57.591,-8.50794 -156.4716,-75.98074 -144.5638,-156.61164 11.9078,-80.63089 141.183,-177.18155 198.7765,-168.67597 57.5934,8.50556 58.9648,103.44526 47.0546,184.07615 z"
   id="path2076"
   inkscape:connector-curvature="0"
   style="fill:#f09959;stroke-width:2.37254357" /><path
   d="m 1175.0175,1123.8748 c 4.5908,-18.3137 -68.754,-29.2582 -80.4197,-14.4179 -115.38393,146.7441 -294.85976,543.1748 -254.56447,614.8114 46.38322,82.4601 546.09537,-25.83 556.40417,-28.4065 10.3063,-2.5766 -18.0409,-79.8859 -18.0409,-79.8859 0,0 -280.0265,5.1532 -327.2709,-26.6294 146.877,-275.7157 89.096,-326.7136 123.8918,-465.4717 z"
   id="path2078"
   inkscape:connector-curvature="0"
   style="fill:#f09959;stroke-width:2.37254357" /><path
   d="m 1146.6703,1041.4147 c -121.2037,54.3312 -252.52637,407.1379 -252.52637,407.1379 0,0 30.92134,7.7298 131.41757,41.2277 41.7733,13.9245 82.2561,26.8405 82.2561,26.8405 0,0 96.2042,-124.8385 126.466,-222.6774 38.9785,-126.0319 -12.8852,-286.0268 -87.6133,-252.5287 z"
   id="path2080"
   inkscape:connector-curvature="0"
   style="fill:#a2dff2;stroke-width:2.37254357" /><g
   id="g2086"
   transform="matrix(2.3725435,0,0,2.3725435,-486.60283,-2365.9185)">
		<path
   d="m 587.447,1593.8 c 47.782,6.163 76.334,22.8 90.842,34.164 2.181,-3.033 4.819,-6.777 7.735,-11.063 -10.053,-9.421 -31.918,-26.214 -63.716,-30.658 -12.911,-1.805 -22.742,-2.971 -30.205,-3.716 -1.762,4.185 -3.322,7.976 -4.656,11.273 z"
   id="path2082"
   inkscape:connector-curvature="0"
   style="fill:#ffffff" />
		<path
   d="m 598.41,1567.904 c -0.819,1.855 -1.612,3.667 -2.379,5.434 41.971,-1.679 82.242,18.767 92.411,31.248 1.193,1.464 2.245,2.755 3.185,3.908 1.053,-1.613 2.124,-3.273 3.206,-4.977 -6.886,-6.78 -19.115,-17.668 -31.492,-23.068 -25.339,-11.056 -61.668,-12.44 -64.931,-12.545 z"
   id="path2084"
   inkscape:connector-curvature="0"
   style="fill:#ffffff" />
	</g><polygon
   points="826.263,1720.926 818.298,1620.877 888.536,1620.877 879.846,1720.926 "
   id="polygon2088"
   transform="matrix(2.3725435,0,0,2.3725435,-486.60283,-2365.9185)"
   style="fill:#75a1de" /><path
   d="m 1362.9348,1616.8372 c 35.2179,-0.859 92.7688,-41.2324 112.5274,-52.4002 19.7562,-11.1651 131.4223,-35.2179 136.5754,-23.1891 5.1531,12.024 -93.6277,36.9333 -93.6277,36.9333 l 73.8715,3.4378 c 0,0 21.4739,32.6415 23.1917,54.1154 1.7176,21.474 -6.8709,52.3977 -6.8709,52.3977 l -32.6415,-29.2061 c 0,0 -26.627,14.6007 -60.1273,34.3592 -33.5004,19.7538 -93.6277,7.7298 -119.3983,2.5766 -25.7705,-5.1531 -85.8979,-24.0529 -85.8979,-24.0529 z"
   id="path2090"
   inkscape:connector-curvature="0"
   style="fill:#f09959;stroke-width:2.37254357" /><path
   d="m 902.52138,1605.6695 c 0,0 56.97899,-32.9285 114.24512,-24.9093 32.817,4.5957 36.3758,9.9434 34.3568,8.5886 7.0939,-13.3147 13.6967,-26.0932 19.87,-38.3948 -29.8347,1.3831 -106.32081,9.4498 -168.47192,54.7155 z"
   id="path2092"
   inkscape:connector-curvature="0"
   style="fill:#e38540;stroke-width:2.37254357" /><path
   d="m 2701.0754,1201.0892 v 584.9672 c 0,19.4477 -18.3303,35.2181 -40.9405,35.2181 h -122.8267 c -20.9566,0 -37.9464,14.6124 -37.9464,32.6413 h 176.7496 c 38.0534,0 68.9012,-26.5368 68.9012,-59.2684 v -593.5559 h -43.9372 z"
   id="path2094"
   inkscape:connector-curvature="0"
   style="fill:#6791c9;stroke-width:2.37254357" /><path
   d="m 2611.2439,1702.0636 -19.5,-3.7129 c -12.8686,-2.4509 -21.0682,-13.5142 -18.2187,-24.582 l 152.851,-593.7765 c 2.8495,-11.0703 15.711,-18.1239 28.5797,-15.6707 l 19.4999,3.7154 c 12.8711,2.4486 21.0682,13.5117 18.2188,24.5819 l -152.8488,593.7742 c -2.8517,11.0726 -15.711,18.1262 -28.5819,15.6706 z"
   id="path2096"
   inkscape:connector-curvature="0"
   style="fill:#95bef5;stroke-width:2.37254357" /><path
   d="m 2616.5726,1703.0792 -2.2943,-0.4366 c -9.9386,-1.8958 -16.2709,-10.437 -14.0715,-18.9875 l 155.2094,-602.9416 c 2.2017,-8.5507 12.1332,-13.9933 22.0741,-12.1048 l 2.2942,0.439 c 9.9387,1.8957 16.2709,10.4369 14.0692,18.9874 l -155.2071,602.9417 c -2.2017,8.5506 -12.1355,13.9956 -22.074,12.1024 z"
   id="path2098"
   inkscape:connector-curvature="0"
   style="fill:#75a1de;stroke-width:2.37254357" /><path
   d="M 3023.4685,1887.8006 H 397.95967 c -12.14742,0 -21.99348,-9.8437 -21.99348,-21.9959 0,-12.145 9.84606,-21.9934 21.99348,-21.9934 H 3023.4661 c 12.1475,0 21.9959,9.846 21.9959,21.9934 0,12.1498 -9.8461,21.9959 -21.9935,21.9959 z"
   id="path2100"
   inkscape:connector-curvature="0"
   style="fill:#2e5b9a;stroke-width:2.37254357" /><path
   d="m 1376.5223,614.16703 c -118.964,73.79084 -43.669,153.59847 -75.2926,290.63421 19.4335,6.65261 40.6582,-31.62364 54.2126,-61.73833 13.5519,-30.11944 25.5998,-73.79085 30.117,-72.28429 4.5174,1.50657 12.0479,69.27115 12.0479,69.27115 l 18.0692,9.03465 c 0,0 25.6022,-45.17797 24.0955,-55.71444 -1.5065,-10.54358 -22.5889,-61.7407 3.0132,-85.83861 16.4488,-15.47848 84.3273,18.07166 84.3273,18.07166 l -66.258,-94.8709 z"
   id="path2102"
   inkscape:connector-curvature="0"
   style="fill:#f09959;stroke-width:2.37254357" /><ellipse
   style="fill:#f09959;stroke-width:2.37249374"
   transform="rotate(-10.789658)"
   cx="1186.6265"
   cy="1016.9642"
   rx="32.375034"
   ry="49.694229"
   id="ellipse2108" /><path
   style="fill:#9ec8ff;stroke-width:2.37254357"
   id="path2110"
   d="m 2640.219,1036.9095 h -845.4654 c -9.666,0 -17.5035,-7.8378 -17.5035,-17.5037 V 529.8753 c 0,-9.66598 7.8341,-17.50391 17.5035,-17.50391 h 845.4654 c 9.6657,0 17.5001,7.83793 17.5001,17.50391 v 489.5305 c 0,9.6659 -7.8344,17.5037 -17.5001,17.5037 z"
   inkscape:connector-curvature="0" /><path
   style="fill:#ffffff;stroke-width:2.37254357"
   id="path2112"
   d="m 2615.488,1020.8304 h -796.007 c -8.4207,0 -15.2476,-6.827 -15.2476,-15.2476 V 611.97076 c 0,-8.42086 6.8269,-15.24762 15.2476,-15.24762 h 796.007 c 8.4206,0 15.2477,6.82676 15.2477,15.24762 v 393.61204 c 0,8.4243 -6.8271,15.2476 -15.2477,15.2476 z"
   inkscape:connector-curvature="0" /><rect
   ry="4.6338625"
   y="613.32892"
   x="2037.7092"
   height="92.677475"
   width="402.22025"
   id="rect2527"
   style="fill:none;fill-opacity:1;stroke:#f40000;stroke-width:7.75653267;stroke-miterlimit:4;stroke-dasharray:none;stroke-opacity:1;paint-order:stroke fill markers" /><g
   style="stroke-width:0.68775702"
   transform="matrix(3.4496818,0,0,3.4496818,-1927.6048,-3756.213)"
   id="g2120">
			<path
   style="fill:#ffffff;stroke-width:0.53622597"
   id="path2114"
   d="m 1091.966,1254.533 h -5.391 c -1.139,0 -2.062,-0.923 -2.062,-2.062 v -4.439 c 0,-1.139 0.923,-2.062 2.062,-2.062 h 5.391 c 1.139,0 2.062,0.923 2.062,2.062 v 4.439 c 0,1.139 -0.923,2.062 -2.062,2.062 z"
   inkscape:connector-curvature="0" />
			<path
   style="fill:#ffffff;stroke-width:0.53622597"
   id="path2116"
   d="m 1109.265,1254.533 h -5.391 c -1.138,0 -2.062,-0.923 -2.062,-2.062 v -4.439 c 0,-1.139 0.923,-2.062 2.062,-2.062 h 5.391 c 1.139,0 2.062,0.923 2.062,2.062 v 4.439 c -10e-4,1.139 -0.924,2.062 -2.062,2.062 z"
   inkscape:connector-curvature="0" />
			<path
   style="fill:#ffffff;stroke-width:0.53622597"
   id="path2118"
   d="m 1126.563,1254.533 h -5.392 c -1.138,0 -2.062,-0.923 -2.062,-2.062 v -4.439 c 0,-1.139 0.923,-2.062 2.062,-2.062 h 5.392 c 1.139,0 2.061,0.923 2.061,2.062 v 4.439 c 10e-4,1.139 -0.922,2.062 -2.061,2.062 z"
   inkscape:connector-curvature="0" />
		</g><path
   d="m 1953.0528,381.60558 h -226.7701 c -5.6703,0 -10.3086,-4.63596 -10.3086,-10.30871 0,-5.67038 4.6383,-10.30633 10.3086,-10.30633 h 226.7701 c 5.6703,0 10.3088,4.63595 10.3088,10.30633 0,5.67275 -4.6408,10.30871 -10.3088,10.30871 z"
   id="path2232"
   inkscape:connector-curvature="0"
   style="fill:#9ec8ff;stroke-width:2.37254357" /><path
   d="m 2545.7474,1252.6113 h -226.7701 c -5.6703,0 -10.3087,-4.6407 -10.3087,-10.311 0,-5.6681 4.6384,-10.3064 10.3087,-10.3064 h 226.7701 c 5.6703,0 10.3086,4.6383 10.3086,10.3064 0,5.6703 -4.6406,10.311 -10.3086,10.311 z"
   id="path2234"
   inkscape:connector-curvature="0"
   style="fill:#9ec8ff;stroke-width:2.37254357" /><path
   d="m 2545.7474,1290.406 h -226.7701 c -5.6703,0 -10.3087,-4.6383 -10.3087,-10.3087 0,-5.6703 4.6384,-10.3087 10.3087,-10.3087 h 226.7701 c 5.6703,0 10.3086,4.6384 10.3086,10.3087 0,5.6704 -4.6406,10.3087 -10.3086,10.3087 z"
   id="path2236"
   inkscape:connector-curvature="0"
   style="fill:#9ec8ff;stroke-width:2.37254357" /><path
   d="m 2545.7474,1331.636 h -226.7701 c -5.6703,0 -10.3087,-4.6383 -10.3087,-10.3063 0,-5.6703 4.6384,-10.3111 10.3087,-10.3111 h 226.7701 c 5.6703,0 10.3086,4.6408 10.3086,10.3111 0,5.6656 -4.6406,10.3063 -10.3086,10.3063 z"
   id="path2238"
   inkscape:connector-curvature="0"
   style="fill:#9ec8ff;stroke-width:2.37254357" /><path
   d="m 2099.0781,421.12028 h -372.7954 c -5.6703,0 -10.3086,-4.6407 -10.3086,-10.3087 0,-5.67038 4.6383,-10.30871 10.3086,-10.30871 h 372.7954 c 5.6703,0 10.3088,4.63833 10.3088,10.30871 0,5.668 -4.6385,10.3087 -10.3088,10.3087 z"
   id="path2240"
   inkscape:connector-curvature="0"
   style="fill:#9ec8ff;stroke-width:2.37254357" /><path
   d="m 489.58493,992.42872 c -59.26613,54.11298 -33.49794,108.22598 10.30632,208.72218 43.80665,100.4939 51.53639,471.5549 51.53639,471.5549 l -36.07453,-5.1532 c 0,0 5.15317,-381.3674 -43.80663,-484.4402 -48.9598,-103.0727 -69.57484,-154.6091 -113.37911,-121.1088 -43.80427,33.4955 131.41756,-69.57488 131.41756,-69.57488 z"
   id="path2242"
   inkscape:connector-curvature="0"
   style="fill:#74b570;stroke-width:2.37254357" /><path
   d="m 522.14333,922.36754 c -7.19828,-32.07204 -49.94203,-66.76812 -107.10134,-96.20189 8.49845,47.29904 35.74473,124.63205 7.54706,140.49492 -38.03188,21.39553 -3.7083,-86.58124 -18.38248,-145.93041 -53.67167,-26.2095 -118.23333,-47.63119 -177.69402,-58.28865 0.0855,0.22302 0.14949,0.42942 0.23964,0.65008 33.49793,85.0367 77.30459,118.53463 59.26613,131.41992 -13.57095,9.69184 -57.77144,-88.53146 -116.13837,-138.88395 -43.81139,-2.33459 -80.872895,3.60627 -102.802316,20.9638 -33.88941,26.82871 -56.63735,50.63244 -22.551023,132.3286 19.473836,13.91258 44.691598,23.88914 73.997259,26.82159 77.30458,7.72978 113.37911,10.30634 59.26613,36.07459 -26.49893,12.61716 -70.91295,-0.71422 -106.925788,-8.83303 11.682409,21.52606 26.041043,45.89219 43.493468,73.64369 11.06792,17.5972 23.26517,32.8811 36.21688,46.0914 24.91645,4.7737 46.63709,4.8282 58.13681,-0.1021 36.07688,-15.4595 128.84097,-64.4193 152.03259,-43.8043 22.69812,20.1785 -171.80063,32.9546 -158.32221,84.2277 94.27539,54.317 202.15494,28.4729 221.22308,-21.4028 25.60923,-66.9815 120.16932,-82.7399 98.4985,-179.26926 z"
   id="path2244"
   inkscape:connector-curvature="0"
   style="fill:#9cd499;stroke-width:2.37254357" /><path
   d="m 327.24601,1288.7594 c 103.07279,-77.3045 208.72214,-5.1531 262.83511,77.3047 54.11297,82.4601 15.46187,267.9882 15.46187,267.9882 0,0 -20.61504,0 -20.61504,-7.7298 0,-7.7321 56.69193,-219.0284 -77.30458,-314.3715 -83.8267,-59.6456 -144.30284,-30.9214 -152.03258,-2.5765 -7.72975,28.3423 33.49794,79.881 33.49794,79.881 z"
   id="path2246"
   inkscape:connector-curvature="0"
   style="fill:#74b570;stroke-width:2.37254357" /><path
   d="m 564.31293,1129.8559 c -103.07278,0 -136.57071,159.7648 -108.22594,252.5289 28.34477,92.7663 66.99825,265.4117 66.99825,265.4117 l 25.7682,-25.7683 c 0,0 -97.91724,-242.2201 -74.72801,-350.4459 23.19162,-108.2237 79.8788,-126.2645 90.1875,-126.2645 10.30871,0 0,-15.4619 0,-15.4619 z"
   id="path2248"
   inkscape:connector-curvature="0"
   style="fill:#9cd499;stroke-width:2.37254357" /><path
   d="m 477.86456,1383.1036 c -7.2505,-9.6041 -16.20684,-17.5401 -27.13478,-22.8001 1.43302,7.6752 3.2148,15.0728 5.35483,22.0813 12.91375,42.2668 27.96755,101.1083 40.53017,152.6565 1.14119,-6.6028 2.90161,-16.7667 5.61817,-32.4659 0.64296,-3.7082 1.14357,-7.7297 1.49471,-11.9932 -10.08806,-34.333 -19.62805,-71.7362 -25.8631,-107.4786 z"
   id="path2250"
   inkscape:connector-curvature="0"
   style="fill:#74b570;stroke-width:2.37254357" /><path
   d="m 449.68349,1383.8771 c -195.83686,-82.46 -92.65968,-195.6091 -265.30494,-120.8835 -12.15927,5.2647 -26.98056,18.5366 -41.81844,36.8385 15.37645,4.3583 33.99617,7.4948 54.70373,4.3916 51.5364,-7.7322 33.49795,33.4955 -51.53639,43.8042 -16.0289,1.9431 -29.03281,4.6194 -39.84687,8.4084 -40.508806,77.8074 -58.767898,180.1875 26.96396,215.7757 16.89251,7.0084 37.77089,11.0228 61.01471,12.5199 26.45623,-21.0279 -6.4557,-142.6967 34.32833,-125.9014 39.15645,16.1238 -12.26842,104.2993 -5.22196,126.5158 38.6511,-0.7022 81.44228,-7.0131 122.33545,-17.1487 16.18074,-9.0702 28.53695,-21.2318 32.34251,-37.2204 12.88529,-54.113 -72.15142,-87.6086 -74.72801,-133.9942 -2.3678,-42.6394 31.16811,93.808 120.01512,113.8916 80.33432,-37.5242 118.29502,-88.4532 26.7528,-126.9975 z"
   id="path2252"
   inkscape:connector-curvature="0"
   style="fill:#9cd499;stroke-width:2.37254357" /><path
   d="m 589.22227,1238.0819 c -20.61266,-43.8043 33.49793,-54.1129 30.92135,-20.6126 -2.28238,29.6804 -2.53625,101.8343 27.90586,121.4814 52.50201,-5.6895 123.93218,-26.8431 177.93602,-59.093 0.67855,-4.356 0.0213,-8.8425 -2.2729,-13.4311 -23.19162,-46.3808 -172.64761,-85.0343 -126.26439,-100.4937 36.94051,-12.3135 101.66823,60.3646 153.82622,96.9776 31.32945,-23.7728 52.31696,-52.1034 52.31696,-83.7318 0,-42.81 -52.01564,-91.2693 -119.28437,-114.43 -30.27365,3.0511 -58.39541,19.6042 -102.32068,44.4945 -64.88906,36.7721 -49.88273,-22.679 11.46888,-57.9634 -52.96466,2.7402 -105.77036,25.3718 -144.71803,79.4304 0,0 3.68455,23.1085 -20.77163,58.8555 -66.72066,97.5139 10.28024,154.4384 102.32306,150.742 -5.20062,-25.7018 -26.82161,-71.9569 -41.06635,-102.2258 z"
   id="path2254"
   inkscape:connector-curvature="0"
   style="fill:#9cd499;stroke-width:2.37254357" /><path
   d="m 333.44783,1284.3916 c -50.39281,38.9405 -106.37061,84.4673 -175.08658,115.3911 -68.718353,30.9212 -54.97658,131.7093 -54.97658,131.7093 0,0 -10.306325,-87.0439 46.95738,-116.8217 57.26609,-29.7778 95.0607,-65.2829 138.58264,-72.1515 43.52194,-6.8732 67.57241,-13.744 67.57241,-13.744 0,0 -13.74177,-27.4884 -5.72732,-37.7971 8.0192,-10.3086 -17.32195,-6.5861 -17.32195,-6.5861 z"
   id="path2256"
   inkscape:connector-curvature="0"
   style="fill:#74b570;stroke-width:2.37254357" /><path
   d="m 85.061514,827.1289 c 184.394076,49.24926 319.538906,167.21447 344.735326,195.8487 25.1964,28.6295 25.1964,36.6487 25.1964,36.6487 l -19.47146,36.6487 -9.16276,-4.5814 c 0,0 14.88771,-30.9238 -24.05047,-71.0102 C 335.15607,951.55455 253.41957,896.98844 197.29705,872.94034 141.18166,848.88987 85.061514,827.1289 85.061514,827.1289 Z"
   id="path2258"
   inkscape:connector-curvature="0"
   style="fill:#74b570;stroke-width:2.37254357" /><path
   d="m 594.04802,1847.7877 h -70.45031 c -50.09389,0 -90.70233,-40.6109 -90.70233,-90.7025 v -161.862 h 251.85735 v 161.862 c 0,50.0916 -40.60847,90.7025 -90.70471,90.7025 z"
   id="path2260"
   inkscape:connector-curvature="0"
   style="fill:#f39892;stroke-width:2.37254357" /><path
   sodipodi:nodetypes="ccssccscccsscccc"
   id="path2345"
   d="m 1544.9219,837.37046 c 2.5742,101.68481 6.63,58.14464 -18.9161,57.53561 -21.6168,33.46566 -91.016,15.23433 -106.3404,-9.917 -39.2015,-64.341 -24.7396,-99.31491 -33.5085,-98.40622 -8.7713,0.90868 -16.7857,25.95562 -39.6547,58.46184 -2.1282,3.02737 -36.6426,21.80747 -37.4208,15.12401 -10.6147,-91.05821 -38.3678,-118.02123 -27.0769,-210.12099 8.323,-67.89507 51.4226,-62.50702 51.4226,-62.50702 0,0 27.8014,-56.81294 114.3495,-50.362 57.9849,4.32279 109.6803,26.91177 169.4541,42.29771 59.7739,15.38358 -70.716,150.87241 -148.2507,101.37404 -77.5395,-49.50073 -39.249,59.53187 -51.4842,67.98998 -12.2329,8.45575 -5.8838,1.12222 -11.495,56.91733 -5.6064,55.7951 65.245,92.22076 85.554,96.99669 64.9294,15.2721 75.7885,4.5624 90.0095,-19.8914 12.3348,-21.21529 -36.6424,-45.49258 -36.6424,-45.49258 z"
   inkscape:connector-curvature="0"
   style="fill:#2e5b9a;stroke-width:2.37254357" /><path
   id="path2456"
   d="m 1390.1161,815.69941 h 33.3639 l 156.625,13.90169 12.9748,33.36388 -19.4622,49.119 -71.3617,46.33888 -50.9726,-28.73006 -55.6066,-64.87415 z"
   style="fill:#f09959;fill-opacity:1;stroke:none;stroke-width:2.37254357px;stroke-linecap:butt;stroke-linejoin:miter;stroke-opacity:1"
   inkscape:connector-curvature="0" /><rect
   ry="4.6338739"
   y="670.8631"
   x="1970.6107"
   height="289.15375"
   width="9.2677479"
   id="rect2513"
   style="fill:#9ec8ff;fill-opacity:1;stroke:none;stroke-width:1.79341972;paint-order:stroke fill markers" /><rect
   transform="rotate(90)"
   style="fill:#9ec8ff;fill-opacity:1;stroke:none;stroke-width:1.79341972;paint-order:stroke fill markers"
   id="rect2515"
   width="9.2677479"
   height="493.97098"
   x="949.82233"
   y="-2465.5085"
   ry="7.9162021" /><path
   id="path2521"
   d="m 2014.058,928.72905 156.6249,-98.23826 41.7051,15.75512 102.8717,-75.06869 29.4664,17.01231 94.7038,-54.6774"
   style="fill:none;stroke:#f40000;stroke-width:7.75653267;stroke-linecap:butt;stroke-linejoin:miter;stroke-miterlimit:4;stroke-dasharray:none;stroke-opacity:1"
   inkscape:connector-curvature="0" /><text
   id="text2525"
   y="680.85864"
   x="2239.6997"
   style="font-size:56.41410828px;line-height:0.94999999;font-family:verdana;-inkscape-font-specification:verdana;text-align:center;word-spacing:0px;text-anchor:middle;stroke-width:2.37254357;fill:#000000;"
   xml:space="preserve"><tspan
     style="stroke-width:2.37254357;fill:#000000;"
     y="680.85864"
     x="2239.6997"
     id="tspan2523"
     sodipodi:role="line">Positif Rate</tspan></text>
</svg>